<?xml version="1.0" encoding="utf-8"?>
<!-- Generator: Adobe Illustrator 24.1.3, SVG Export Plug-In . SVG Version: 6.00 Build 0)  -->
<svg version="1.1" xmlns="http://www.w3.org/2000/svg" xmlns:xlink="http://www.w3.org/1999/xlink" x="0px" y="0px"
	 viewBox="0 0 500 500" style="enable-background:new 0 0 500 500;" xml:space="preserve">
<style type="text/css">
	.st0{display:none;}
	.st1{fill:#FFE1C9;}
	.st2{fill:#D1D3D4;}
	.st3{fill:#F17364;}
	.st4{fill:#FFFFFF;}
	.st5{fill:#FFB172;}
	.st6{fill:#2B4880;}
	.st7{fill:#C75F53;}
	.st8{fill:#F8C79F;}
	.st9{fill:#D9A275;}
	.st10{fill:#853831;}
	.st11{fill:#E1B441;}
	.st12{fill:#BD983B;}
	.st13{fill:#BCBEC0;}
	.st14{fill:#A2A4A6;}
	.st15{fill:#B38F34;}
	.st16{fill:#203661;}
	.st17{fill:#B3B4B5;}
	.st18{clip-path:url(#SVGID_2_);}
</style>
<g id="BACKGROUND" class="st0">
</g>
<g id="OBJECTS">
	<g>
		<path class="st1" d="M71.6,415.98c7.23-16.19-3.3-34.94-15.17-47.7c-11.88-12.76-26.41-25.09-29.25-42.74
			c-2.56-15.87,5.28-31.47,14.13-44.56c8.85-13.09,19.26-25.73,23.04-41.32c7.63-31.48-13.68-61.84-20.63-93.5
			c-5.87-26.73-0.95-55.91,13.3-78.84c14.25-22.93,37.62-39.3,63.15-44.22c43.01-8.29,86.99,14.8,130.27,8.3
			c28.47-4.27,54.18-21.03,82.59-25.68c33.88-5.54,70.01,7.79,93.28,34.4c23.27,26.62,33.01,65.74,25.13,101.02
			c-5.61,25.14-19.23,47.29-30.16,70.39c-10.94,23.1-19.47,49.33-13.85,74.47c6.55,29.32,30.71,50.58,41.72,78.36
			c11.95,30.15,6.33,67.23-13.92,91.93L68,456.95C68.18,444.79,66.69,426.97,71.6,415.98z"/>
		<path class="st2" d="M489.26,475.01H356.5c-2.06,0-3.74,1.77-3.74,3.95c0,2.18,1.67,3.95,3.74,3.95h132.76
			c2.06,0,3.74-1.77,3.74-3.95C493,476.78,491.33,475.01,489.26,475.01z"/>
		<path class="st2" d="M367.62,490.26h-41.29c-2.06,0-3.74,1.77-3.74,3.95s1.67,3.95,3.74,3.95h41.29c2.06,0,3.74-1.77,3.74-3.95
			S369.69,490.26,367.62,490.26z"/>
		<path class="st2" d="M312.83,475.01h-41.29c-2.06,0-3.74,1.77-3.74,3.95c0,2.18,1.67,3.95,3.74,3.95h41.29
			c2.06,0,3.74-1.77,3.74-3.95C316.57,476.78,314.89,475.01,312.83,475.01z"/>
		<path class="st2" d="M157.58,475.01H24.82c-2.06,0-3.74,1.77-3.74,3.95c0,2.18,1.67,3.95,3.74,3.95h132.76
			c2.06,0,3.74-1.77,3.74-3.95C161.31,476.78,159.64,475.01,157.58,475.01z"/>
		<g>
			<g>
				<g>
					<path class="st3" d="M359.97,108.64c2.27-8.78,5.68-17.44,11.42-24.22c5.74-6.78,14.11-11.49,22.7-11s17.01,7.01,18.64,15.95
						c1.61,8.83-3.35,17.65-9.67,23.66c-6.32,6.01-14.05,10.14-20.59,15.89c-14.68,12.9-22.39,34.13-19.64,54.1
						c-0.31-2.28-3.42-5.68-4.2-8.17c-0.82-2.6-1.22-5.18-1.16-7.9c0.11-5.39,0.26-10.02-0.38-15.47
						C355.41,137.18,356.38,122.53,359.97,108.64z"/>
				</g>
				<g>
					<g>
						<path class="st4" d="M356.38,166.23c-0.1,0.02-0.21,0.02-0.32,0.01c-0.65-0.07-1.12-0.69-1.06-1.38
							c2.99-30.55,19.22-58.96,43.39-75.98c0.54-0.38,1.28-0.23,1.64,0.35c0.36,0.58,0.21,1.35-0.33,1.74
							c-23.6,16.61-39.43,44.33-42.35,74.15C357.3,165.7,356.89,166.14,356.38,166.23z"/>
					</g>
					<g>
						<path class="st4" d="M402.42,106.01c-0.05,0.01-0.11,0.02-0.17,0.02c-7.26,0.21-14.54,1.19-21.62,2.9
							c-0.66,0.16-1.27-0.27-1.42-0.94c-0.15-0.68,0.25-1.35,0.89-1.5c7.24-1.75,14.66-2.74,22.08-2.96
							c0.65-0.02,1.2,0.53,1.22,1.22C403.43,105.37,403,105.9,402.42,106.01z"/>
					</g>
					<g>
						<path class="st4" d="M374.18,117.09c-0.01,0-0.02,0-0.03,0c-0.65,0.1-1.25-0.37-1.35-1.06l-2.84-20.4
							c-0.09-0.68,0.34-1.3,0.97-1.42c0.01,0,0.02,0,0.03,0c0.65-0.1,1.25,0.37,1.35,1.06l2.84,20.4
							C375.25,116.34,374.82,116.97,374.18,117.09z"/>
					</g>
					<g>
						<path class="st4" d="M382.82,126.28c-0.05,0.01-0.09,0.01-0.14,0.02c-4.97,0.26-9.94,1.01-14.78,2.22
							c-0.63,0.17-1.28-0.26-1.43-0.93c-0.15-0.67,0.24-1.35,0.88-1.51c4.98-1.25,10.1-2.02,15.22-2.29
							c0.65-0.03,1.21,0.5,1.24,1.19C383.83,125.63,383.4,126.18,382.82,126.28z"/>
					</g>
				</g>
			</g>
			<g>
				<g>
					<path class="st5" d="M365.47,153.36c5.02-11.42,11.56-22.39,20.88-30.24c9.32-7.85,21.75-12.22,33.37-9.45
						s21.66,13.72,21.93,26.31c0.26,12.43-8.43,23.25-18.37,29.91c-9.94,6.65-21.38,10.4-31.55,16.63
						c-22.85,14-38,41.07-38.63,68.98c0.07-3.19-3.42-8.58-3.94-12.17c-0.55-3.74-0.53-7.36,0.14-11.07
						c1.32-7.32,2.54-13.61,2.86-21.19C353.01,191.16,357.53,171.43,365.47,153.36z"/>
				</g>
				<g>
					<path class="st4" d="M347.97,231.03c-0.15,0-0.29-0.02-0.44-0.06c-0.87-0.26-1.38-1.21-1.14-2.14
						c10.77-40.93,39.11-75.7,75.81-93c0.83-0.39,1.8,0,2.17,0.88c0.37,0.87,0,1.9-0.83,2.29c-35.82,16.88-63.47,50.82-73.98,90.77
						C349.34,230.52,348.68,231.03,347.97,231.03z"/>
				</g>
				<g>
					<path class="st4" d="M423.94,160.16c-0.08,0-0.15-0.01-0.23-0.02c-9.95-1.49-20.09-1.94-30.12-1.33
						c-0.94,0.05-1.68-0.68-1.73-1.63c-0.05-0.96,0.64-1.78,1.54-1.83c10.25-0.61,20.6-0.16,30.76,1.36
						c0.9,0.13,1.52,1.01,1.39,1.96C425.45,159.53,424.74,160.16,423.94,160.16z"/>
				</g>
				<g>
					<path class="st4" d="M383,168.36c-0.01,0-0.02,0-0.04,0c-0.91-0.02-1.62-0.81-1.6-1.77l0.59-28.51c0.02-0.94,0.75-1.7,1.64-1.7
						c0.01,0,0.02,0,0.04,0c0.91,0.02,1.62,0.81,1.6,1.77l-0.59,28.51C384.62,167.6,383.89,168.36,383,168.36z"/>
				</g>
				<g>
					<path class="st4" d="M392.77,183.02c-0.07,0-0.13,0-0.2-0.01c-6.83-0.87-13.78-1.06-20.65-0.59c-0.9,0.07-1.68-0.66-1.74-1.62
						c-0.06-0.96,0.63-1.78,1.53-1.84c7.07-0.49,14.22-0.29,21.25,0.6c0.9,0.11,1.54,0.98,1.43,1.93
						C394.29,182.37,393.59,183.02,392.77,183.02z"/>
				</g>
			</g>
			<g>
				<g>
					<path class="st3" d="M77.94,224.12c-4.49-7.77-10.04-15.08-17.34-19.91c-7.3-4.83-16.57-6.89-24.7-3.89
						c-8.13,3-14.49,11.73-13.7,20.8c0.78,8.95,7.86,15.97,15.52,19.88c7.65,3.92,16.16,5.61,23.95,9.2
						c17.5,8.07,30.48,26.19,33.1,46.19c-0.3-2.28,1.79-6.46,1.89-9.08c0.1-2.74-0.19-5.33-0.96-7.94
						c-1.52-5.14-2.88-9.55-3.7-14.97C89.83,250.19,85.05,236.41,77.94,224.12z"/>
				</g>
				<g>
					<g>
						<path class="st4" d="M96.55,278.39c0.1-0.01,0.21-0.04,0.31-0.08c0.61-0.26,0.9-0.99,0.65-1.63
							c-10.91-28.46-33.97-50.98-61.67-60.21c-0.62-0.21-1.29,0.16-1.49,0.82c-0.2,0.66,0.15,1.36,0.77,1.57
							c27.04,9.02,49.53,30.99,60.19,58.77C95.52,278.15,96.03,278.45,96.55,278.39z"/>
					</g>
					<g>
						<path class="st4" d="M36.48,234.08c0.06-0.01,0.11-0.02,0.17-0.03c7.03-1.93,14.28-3.13,21.53-3.57
							c0.68-0.04,1.15-0.63,1.12-1.32c-0.04-0.69-0.6-1.22-1.25-1.18c-7.41,0.45-14.81,1.68-21.99,3.65
							c-0.63,0.17-1.01,0.86-0.85,1.53C35.35,233.77,35.9,234.15,36.48,234.08z"/>
					</g>
					<g>
						<path class="st4" d="M66.52,236.42c0.01,0,0.02,0,0.03,0c0.65-0.09,1.1-0.73,1.01-1.41l-2.63-20.43
							c-0.09-0.68-0.67-1.15-1.31-1.08c-0.01,0-0.02,0-0.03,0c-0.65,0.09-1.1,0.73-1.01,1.41l2.63,20.43
							C65.3,236.02,65.88,236.49,66.52,236.42z"/>
					</g>
					<g>
						<path class="st4" d="M60.64,247.79c0.05-0.01,0.09-0.01,0.14-0.03c4.84-1.22,9.82-1.96,14.79-2.22
							c0.65-0.03,1.16-0.62,1.13-1.31c-0.03-0.69-0.59-1.23-1.24-1.19c-5.11,0.26-10.24,1.03-15.22,2.28
							c-0.64,0.16-1.03,0.84-0.88,1.51C59.5,247.46,60.05,247.87,60.64,247.79z"/>
					</g>
				</g>
			</g>
			<g>
				<g>
					<path class="st5" d="M84.43,268.69c-7.83-9.49-17-18.11-28.01-22.91c-11.01-4.8-24.11-5.34-34.54,0.74
						c-10.43,6.08-17.2,19.55-14.14,31.72c3.02,12.02,14.22,19.85,25.51,23.32c11.29,3.47,23.27,3.7,34.68,6.69
						c25.63,6.73,47.31,28.27,55.25,54.9c-0.91-3.04,1.02-9.25,0.58-12.85c-0.46-3.76-1.43-7.22-3.05-10.59
						c-3.2-6.64-6.02-12.32-8.33-19.51C106.35,301.34,96.81,283.72,84.43,268.69z"/>
				</g>
				<g>
					<path class="st4" d="M121.67,338.15c0.14-0.04,0.28-0.11,0.41-0.19c0.77-0.5,1.01-1.57,0.53-2.39
						c-21.11-36.15-57.48-61.21-97.28-67.03c-0.9-0.13-1.72,0.53-1.85,1.48c-0.12,0.95,0.5,1.82,1.4,1.96
						c38.84,5.68,74.34,30.14,94.94,65.42C120.22,338.07,120.99,338.36,121.67,338.15z"/>
				</g>
				<g>
					<path class="st4" d="M30.06,292.43c0.07-0.02,0.15-0.05,0.22-0.08c9.17-4.36,18.78-7.77,28.58-10.14
						c0.91-0.22,1.43-1.14,1.23-2.08c-0.2-0.93-1.08-1.52-1.97-1.3c-10.01,2.43-19.82,5.91-29.19,10.36
						c-0.83,0.39-1.2,1.42-0.82,2.29C28.44,292.27,29.28,292.66,30.06,292.43z"/>
				</g>
				<g>
					<path class="st4" d="M71.54,288.26c0.01,0,0.02-0.01,0.03-0.01c0.86-0.29,1.35-1.26,1.08-2.17l-8.06-27.22
						c-0.27-0.9-1.17-1.41-2.02-1.15c-0.01,0-0.02,0.01-0.03,0.01c-0.86,0.29-1.35,1.26-1.08,2.17l8.06,27.22
						C69.78,288.01,70.68,288.52,71.54,288.26z"/>
				</g>
				<g>
					<path class="st4" d="M66.01,305.21c0.06-0.02,0.13-0.04,0.19-0.07c6.34-2.84,12.96-5.07,19.68-6.64
						c0.88-0.19,1.44-1.13,1.25-2.07c-0.19-0.94-1.07-1.53-1.95-1.32c-6.92,1.61-13.73,3.91-20.26,6.83
						c-0.83,0.37-1.22,1.39-0.87,2.27C64.38,305.04,65.23,305.45,66.01,305.21z"/>
				</g>
			</g>
			<g>
				<path class="st6" d="M30.07,96.27c-3.54,2.74-5.32,7.8-4.32,12.32c0.75,3.38,2.88,6.37,3.12,9.84c0.3,4.47-2.58,8.39-5.13,11.97
					c-2.55,3.58-5.05,7.98-3.88,12.29c1.84,6.77,11.24,8.36,13.53,14.98c2.22,6.41-3.55,13.75-1.15,20.09
					c1.67,4.41,6.6,6.3,11.07,6.84c4.46,0.54,9.19,0.3,13.17,2.51c4.41,2.45,7.6,7.75,12.56,8.12c3.03,0.22,5.84-1.53,8.38-3.29
					c5.31-3.68,10.42-7.69,15.29-12.01c3.79-3.35,7.79-8.06,6.49-13.09c-1.01-3.93-4.87-6.22-6.77-9.75
					c-2.93-5.45-0.61-12.26,1.88-17.95c2.49-5.69,5.15-12.23,2.77-17.96c-2.87-6.91-11.54-8.93-15.53-15.19
					c-2.64-4.15-2.81-9.51-4.67-14.11c-2.97-7.37-10.64-12.3-18.2-11.69c-5.72,0.46-10.96,4.04-14.07,9.08
					c-2.17,3.53-1.61,4.67-5.49,5.04C35.71,94.63,33.16,93.88,30.07,96.27z"/>
				<rect x="79.85" y="135.4" class="st7" width="33.34" height="13.2"/>
				<path class="st3" d="M83.17,137.35c-1.02-1.87-3.28-2.51-5.05-1.43l-27.55,16.82c-1.77,1.08-2.37,3.47-1.35,5.34L93.4,221.3
					l19.11-20.61L83.17,137.35z"/>
				<path class="st8" d="M70.68,144.67l-3.5-13.28l-10.07,2.97l3.5,13.28c0.77,2.94,3.66,4.66,6.44,3.84l0,0
					C69.83,150.66,71.45,147.61,70.68,144.67z"/>
				<path class="st9" d="M67.18,131.39l-10.07,2.97l1.32,5.03c1.6,0.59,3.25,1,4.93,1.22c2.04,0.26,4.21,0.21,6.04-0.78
					L67.18,131.39z"/>
				<g>
					<path class="st8" d="M67.33,95.31l8.39,24.26c2.29,6.63-0.93,13.97-7.2,16.39l0,0c-9.11,3.52-19.19-1.43-22.52-11.06
						l-6.51-18.82L67.33,95.31z"/>
					<path class="st10" d="M55.32,115.98c0.32,0.93,1.29,1.4,2.17,1.07c0.88-0.34,1.33-1.37,1.01-2.29
						c-0.32-0.93-1.29-1.4-2.17-1.07S55,115.05,55.32,115.98z"/>
					<path class="st10" d="M66.21,111.77c0.32,0.93,1.29,1.4,2.17,1.07c0.88-0.34,1.33-1.37,1.01-2.29
						c-0.32-0.93-1.29-1.4-2.17-1.07S65.89,110.84,66.21,111.77z"/>
					<g>
						<path class="st10" d="M64.53,129.08c0.8-0.31,1.52-0.83,2.05-1.54c0.25-0.33,0.2-0.8-0.11-1.07
							c-0.31-0.26-0.76-0.21-1.01,0.12c-0.79,1.04-2.16,1.51-3.49,1.2c-1.16-0.27-1.98-1.09-2.24-2.23
							c-0.09-0.41-0.48-0.66-0.87-0.56c-0.38,0.09-0.62,0.51-0.53,0.92c0.39,1.7,1.63,2.95,3.32,3.35
							C62.64,129.5,63.64,129.42,64.53,129.08z"/>
					</g>
					<path class="st9" d="M68.56,118.94c0.64,0.2,1.44,0.32,1.71,0.97c0.24,0.57-0.1,1.25-0.58,1.61c-0.99,0.76-2.44,0.54-3.42-0.23
						c-0.98-0.77-1.57-1.98-1.98-3.2c-0.22-0.64-0.39-1.34-0.26-2c0.09-0.46,0.49-1.27,1.03-1.04c0.45,0.19,0.59,1.03,0.78,1.43
						C66.38,117.64,67.38,118.58,68.56,118.94z"/>
					<path class="st6" d="M47.02,122.93c3.78-5.59,5.17-12.91,3.75-19.61c6.93,3.95,15.22,5.19,22.97,3.74
						c-1.44-4.14-3.13-7.87-5.07-11.78c-0.56-1.13-1.18-2.3-2.23-2.92c-1.6-0.96-3.61-0.34-5.35,0.3
						c-4.41,1.62-8.81,3.23-13.22,4.85c-4.04,1.48-8.52,3.37-10.22,7.53c-0.88,2.15-0.85,4.61-0.32,6.88
						c0.53,2.27,1.53,4.38,2.56,6.45c0.65,1.32,1.34,2.66,2.4,3.64C43.37,122.98,45.69,123.44,47.02,122.93z"/>
					<path class="st8" d="M42.76,126.55c1.19,3.45,3.88,5.57,6.01,4.75c2.13-0.82,2.88-4.28,1.69-7.73
						c-1.19-3.45-3.88-5.57-6.01-4.75C42.32,119.65,41.57,123.11,42.76,126.55z"/>
				</g>
				<path class="st7" d="M93.4,221.3l7.89-8.5c0.39-12.35,0.27-24.72-0.33-37.06l-3.65-7.89c-5.32,3.45-10.86,6.53-16.59,9.17
					c-7.85-4.44-14.96-10.36-20.88-17.39c-2.02,2.38-2.99,5.6-3.3,8.92L93.4,221.3z"/>
			</g>
			<g>
				<g>
					<rect x="90.36" y="61.61" class="st11" width="268.57" height="402.12"/>
				</g>
				<g>
					<polygon class="st12" points="358.93,235.69 342.17,80.15 107.12,445.2 116.81,463.73 358.93,463.73 					"/>
				</g>
				<g>
					<rect x="107.12" y="80.15" class="st4" width="235.05" height="365.05"/>
				</g>
				<g>
					<g>
						<path class="st13" d="M224.64,10.75c-12.78,0-23.14,10.96-23.14,24.47V77.8h46.28V35.22
							C247.78,21.7,237.42,10.75,224.64,10.75z"/>
					</g>
					<g>
						<ellipse class="st4" cx="224.64" cy="30.21" rx="8.75" ry="9.25"/>
					</g>
					<g>
						<rect x="201.5" y="43.12" class="st14" width="46.28" height="10.98"/>
					</g>
					<g>
						<rect x="163.24" y="47.74" class="st13" width="122.81" height="43.16"/>
					</g>
					<g>
						<path class="st2" d="M277.3,52.37H171.99c-2.52,0-4.56,2.16-4.56,4.82c0,2.66,2.04,4.82,4.56,4.82H277.3
							c2.52,0,4.56-2.16,4.56-4.82C281.86,54.52,279.82,52.37,277.3,52.37z"/>
					</g>
					<g>
						<path class="st14" d="M277.3,77.8H171.99c-2.52,0-4.56,2.16-4.56,4.82s2.04,4.82,4.56,4.82H277.3c2.52,0,4.56-2.16,4.56-4.82
							S279.82,77.8,277.3,77.8z"/>
					</g>
				</g>
				<g>
					<g>
						<path class="st14" d="M239.4,126.93H121.33c-1.81,0-3.28-1.55-3.28-3.47c0-1.92,1.47-3.47,3.28-3.47H239.4
							c1.81,0,3.28,1.55,3.28,3.47C242.68,125.38,241.21,126.93,239.4,126.93z"/>
					</g>
					<g>
						<path class="st2" d="M269.47,140.58h-62.32c-1.51,0-2.73-1.29-2.73-2.89s1.22-2.89,2.73-2.89h62.32
							c1.51,0,2.73,1.29,2.73,2.89S270.98,140.58,269.47,140.58z"/>
					</g>
					<g>
						<path class="st2" d="M183.92,140.58h-62.59c-1.51,0-2.73-1.29-2.73-2.89s1.22-2.89,2.73-2.89h62.59
							c1.51,0,2.73,1.29,2.73,2.89S185.43,140.58,183.92,140.58z"/>
					</g>
					<g>
						<path class="st2" d="M246.78,153.56H121.33c-1.51,0-2.73-1.29-2.73-2.89s1.22-2.89,2.73-2.89h125.45
							c1.51,0,2.73,1.29,2.73,2.89S248.29,153.56,246.78,153.56z"/>
					</g>
					<g>
						<path class="st2" d="M224.64,165.88H121.33c-1.51,0-2.73-1.29-2.73-2.89s1.22-2.89,2.73-2.89h103.31
							c1.51,0,2.73,1.29,2.73,2.89S226.15,165.88,224.64,165.88z"/>
					</g>
				</g>
				<g>
					<g>
						<path class="st14" d="M239.4,210.54H121.33c-1.81,0-3.28-1.55-3.28-3.47c0-1.92,1.47-3.47,3.28-3.47H239.4
							c1.81,0,3.28,1.55,3.28,3.47C242.68,208.99,241.21,210.54,239.4,210.54z"/>
					</g>
					<g>
						<path class="st2" d="M269.47,224.19h-62.32c-1.51,0-2.73-1.29-2.73-2.89c0-1.6,1.22-2.89,2.73-2.89h62.32
							c1.51,0,2.73,1.29,2.73,2.89C272.2,222.9,270.98,224.19,269.47,224.19z"/>
					</g>
					<g>
						<path class="st2" d="M183.92,224.19h-62.59c-1.51,0-2.73-1.29-2.73-2.89c0-1.6,1.22-2.89,2.73-2.89h62.59
							c1.51,0,2.73,1.29,2.73,2.89C186.65,222.9,185.43,224.19,183.92,224.19z"/>
					</g>
					<g>
						<path class="st2" d="M246.78,237.17H121.33c-1.51,0-2.73-1.29-2.73-2.89s1.22-2.89,2.73-2.89h125.45
							c1.51,0,2.73,1.29,2.73,2.89S248.29,237.17,246.78,237.17z"/>
					</g>
					<g>
						<path class="st2" d="M224.64,249.49H121.33c-1.51,0-2.73-1.29-2.73-2.89c0-1.6,1.22-2.89,2.73-2.89h103.31
							c1.51,0,2.73,1.29,2.73,2.89C227.38,248.2,226.15,249.49,224.64,249.49z"/>
					</g>
				</g>
				<g>
					<g>
						<path class="st14" d="M239.4,294.15H121.33c-1.81,0-3.28-1.55-3.28-3.47c0-1.92,1.47-3.47,3.28-3.47H239.4
							c1.81,0,3.28,1.55,3.28,3.47C242.68,292.59,241.21,294.15,239.4,294.15z"/>
					</g>
					<g>
						<path class="st2" d="M269.47,307.8h-62.32c-1.51,0-2.73-1.29-2.73-2.89c0-1.6,1.22-2.89,2.73-2.89h62.32
							c1.51,0,2.73,1.29,2.73,2.89C272.2,306.51,270.98,307.8,269.47,307.8z"/>
					</g>
					<g>
						<path class="st2" d="M183.92,307.8h-62.59c-1.51,0-2.73-1.29-2.73-2.89c0-1.6,1.22-2.89,2.73-2.89h62.59
							c1.51,0,2.73,1.29,2.73,2.89C186.65,306.51,185.43,307.8,183.92,307.8z"/>
					</g>
					<g>
						<path class="st2" d="M246.78,320.78H121.33c-1.51,0-2.73-1.29-2.73-2.89c0-1.6,1.22-2.89,2.73-2.89h125.45
							c1.51,0,2.73,1.29,2.73,2.89C249.51,319.49,248.29,320.78,246.78,320.78z"/>
					</g>
					<g>
						<path class="st2" d="M224.64,333.1H121.33c-1.51,0-2.73-1.29-2.73-2.89s1.22-2.89,2.73-2.89h103.31
							c1.51,0,2.73,1.29,2.73,2.89S226.15,333.1,224.64,333.1z"/>
					</g>
				</g>
				<g>
					<g>
						<path class="st14" d="M239.4,377.76H121.33c-1.81,0-3.28-1.55-3.28-3.47c0-1.92,1.47-3.47,3.28-3.47H239.4
							c1.81,0,3.28,1.55,3.28,3.47C242.68,376.2,241.21,377.76,239.4,377.76z"/>
					</g>
					<g>
						<path class="st2" d="M269.47,391.41h-62.32c-1.51,0-2.73-1.29-2.73-2.89s1.22-2.89,2.73-2.89h62.32
							c1.51,0,2.73,1.29,2.73,2.89S270.98,391.41,269.47,391.41z"/>
					</g>
					<g>
						<path class="st2" d="M183.92,391.41h-62.59c-1.51,0-2.73-1.29-2.73-2.89s1.22-2.89,2.73-2.89h62.59
							c1.51,0,2.73,1.29,2.73,2.89S185.43,391.41,183.92,391.41z"/>
					</g>
					<g>
						<path class="st2" d="M246.78,404.39H121.33c-1.51,0-2.73-1.29-2.73-2.89s1.22-2.89,2.73-2.89h125.45
							c1.51,0,2.73,1.29,2.73,2.89S248.29,404.39,246.78,404.39z"/>
					</g>
					<g>
						<path class="st2" d="M224.64,416.71H121.33c-1.51,0-2.73-1.29-2.73-2.89c0-1.6,1.22-2.89,2.73-2.89h103.31
							c1.51,0,2.73,1.29,2.73,2.89C227.38,415.41,226.15,416.71,224.64,416.71z"/>
					</g>
				</g>
				<g>
					<path class="st2" d="M325.33,157.84h-32.64c-1.51,0-2.73-1.29-2.73-2.89v-34.52c0-1.6,1.22-2.89,2.73-2.89h32.64
						c1.51,0,2.73,1.29,2.73,2.89v34.52C328.06,156.55,326.84,157.84,325.33,157.84z M295.42,152.06h27.17v-28.73h-27.17V152.06z"/>
				</g>
				<g>
					<path class="st2" d="M325.33,241.45h-32.64c-1.51,0-2.73-1.29-2.73-2.89v-34.52c0-1.6,1.22-2.89,2.73-2.89h32.64
						c1.51,0,2.73,1.29,2.73,2.89v34.52C328.06,240.15,326.84,241.45,325.33,241.45z M295.42,235.67h27.17v-28.73h-27.17V235.67z"/>
				</g>
				<g>
					<path class="st2" d="M325.33,325.06h-32.64c-1.51,0-2.73-1.29-2.73-2.89v-34.52c0-1.6,1.22-2.89,2.73-2.89h32.64
						c1.51,0,2.73,1.29,2.73,2.89v34.52C328.06,323.76,326.84,325.06,325.33,325.06z M295.42,319.28h27.17v-28.73h-27.17V319.28z"/>
				</g>
				<g>
					<path class="st2" d="M325.33,408.67h-32.64c-1.51,0-2.73-1.29-2.73-2.89v-34.51c0-1.6,1.22-2.89,2.73-2.89h32.64
						c1.51,0,2.73,1.29,2.73,2.89v34.51C328.06,407.37,326.84,408.67,325.33,408.67z M295.42,402.89h27.17v-28.73h-27.17V402.89z"/>
				</g>
				<g>
					<g>
						<polygon class="st3" points="306.64,130.84 281.86,116.86 307.36,148.6 339.91,104.49 						"/>
					</g>
				</g>
				<g>
					<g>
						<polygon class="st3" points="306.64,214.5 281.86,200.52 307.36,232.26 339.91,188.14 						"/>
					</g>
				</g>
				<g>
					<g>
						<polygon class="st3" points="306.64,298.79 281.86,284.8 307.36,316.54 339.91,272.43 						"/>
					</g>
				</g>
				<g>
					<g>
						<polygon class="st15" points="286.05,61.61 286.05,90.9 313.74,61.61 						"/>
					</g>
					<g>
						<polygon class="st2" points="286.05,80.15 286.05,90.9 296.21,80.15 						"/>
					</g>
				</g>
				<g>
					<g>
						<polygon class="st15" points="163.24,61.61 163.24,90.9 135.54,61.61 						"/>
					</g>
					<g>
						<polygon class="st2" points="163.24,80.15 163.24,90.9 153.07,80.15 						"/>
					</g>
				</g>
			</g>
			<g>
				<path class="st7" d="M418.1,296.3c0,0-0.46,1.04-1.25,2.87c-0.2,0.46-0.43,0.97-0.67,1.52c-0.27,0.58-0.56,1.2-0.87,1.87
					c-0.61,1.34-1.32,2.83-2.11,4.4c-0.77,1.59-1.66,3.29-2.62,5.07c-0.93,1.79-2.01,3.63-3.09,5.55c-1.13,1.89-2.27,3.85-3.52,5.79
					c-1.21,1.96-2.53,3.89-3.82,5.83c-1.35,1.9-2.66,3.82-4.05,5.64c-1.35,1.85-2.76,3.6-4.09,5.31c-1.38,1.67-2.69,3.31-4.01,4.8
					c-1.3,1.5-2.54,2.91-3.72,4.17c-1.16,1.28-2.25,2.42-3.23,3.42c-0.97,1.01-1.82,1.88-2.55,2.58c-1.43,1.4-2.25,2.21-2.25,2.21
					c-1.82,1.78-4.67,1.67-6.36-0.26c-1.62-1.85-1.58-4.7,0.03-6.5l0.1-0.11c0,0,0.73-0.81,2-2.23c0.65-0.7,1.4-1.58,2.26-2.59
					c0.87-1,1.83-2.15,2.85-3.43c1.04-1.26,2.12-2.66,3.26-4.16c1.15-1.48,2.29-3.1,3.49-4.76c1.16-1.69,2.38-3.42,3.54-5.23
					c1.2-1.79,2.32-3.67,3.47-5.53c1.09-1.9,2.22-3.77,3.24-5.67c1.06-1.88,2.01-3.78,2.95-5.6c0.89-1.85,1.79-3.62,2.56-5.34
					c0.78-1.71,1.51-3.33,2.14-4.85c0.66-1.52,1.21-2.89,1.67-4.11c0.24-0.61,0.46-1.18,0.67-1.7c0.21-0.56,0.4-1.07,0.57-1.54
					c0.69-1.88,1.08-2.95,1.08-2.95c1.33-3.65,5.21-5.46,8.66-4.05c3.45,1.41,5.17,5.51,3.83,9.16
					C418.22,296.02,418.16,296.17,418.1,296.3z"/>
				<path class="st6" d="M402.32,361.84h39.39l13.27,104.73h-11.99l-17.74-82.8c-0.39-1.82-1.92-3.12-3.69-3.12l0,0
					c-2.02,0-3.69,1.68-3.78,3.82l-3.48,82.09h-11.99V361.84z"/>
				<path class="st3" d="M444.12,285.58h-29.61c-3.76,0-6.89,3.07-7.18,7.03l-5.02,69.22h39.39l9.54-67.52
					C451.9,289.72,448.52,285.58,444.12,285.58z"/>
				<path class="st8" d="M422.44,273.48l-0.61,13.36c-0.16,3.46,2.36,6.39,5.63,6.56c3.27,0.17,6.05-2.5,6.2-5.95l0.61-13.36
					L422.44,273.48z"/>
				<path class="st9" d="M421.95,284.11c2.1-0.26,4.15-0.88,6.08-1.8c2.31-1.1,4.3-2.61,6.07-4.41l0.17-3.8l-11.83-0.61
					L421.95,284.11z"/>
				<g>
					<path class="st8" d="M413.42,239.05v25.83c0,7.06,5.41,12.78,12.08,12.78l0,0c9.7,0,17.56-8.31,17.56-18.57v-20.04H413.42z"/>
					<path class="st6" d="M442.42,260.15c-4.83-2.96-8.27-8.31-9.11-14.14l-19.7,0c-10.95,0-7.95-11.61-5.29-16.42
						c0.44-0.79,1.01-1.59,1.85-1.84c1.28-0.38,2.61,0.77,3,2.12c0.39,1.35,0.1,2.8-0.19,4.18c1.15-2.9,2.52-5.96,4.89-7.86
						c0.95-0.75,2.23-1.3,3.3-0.76c0.89,0.45,1.35,1.55,1.37,2.6c0.02,1.04-0.33,2.05-0.66,3.03c1.92-2.39,4.2-4.48,6.93-5.7
						c0.95-0.42,2.09-0.75,2.95-0.15c1.03,0.72,1.01,2.37,0.47,3.53c-0.55,1.16-1.48,2.09-2.04,3.24c2.52-0.45,5.16-0.77,7.7-0.49
						c2.54,0.28,5.1,1.39,6.65,3.54c1.21,1.68,1.68,3.82,1.92,5.92C447.23,247.67,445.63,254.31,442.42,260.15z"/>
					<path class="st8" d="M446.65,259.47c0,3.67-1.83,6.64-4.1,6.64c-2.26,0-4.1-2.97-4.1-6.64c0-3.67,1.83-6.64,4.1-6.64
						C444.81,252.82,446.65,255.8,446.65,259.47z"/>
					<path class="st10" d="M431.42,254.1c0,0.99-0.76,1.79-1.69,1.79c-0.93,0-1.69-0.8-1.69-1.79c0-0.99,0.76-1.79,1.69-1.79
						C430.66,252.31,431.42,253.11,431.42,254.1z"/>
					<path class="st10" d="M419.82,254.1c0,0.99-0.76,1.79-1.69,1.79c-0.93,0-1.69-0.8-1.69-1.79c0-0.99,0.76-1.79,1.69-1.79
						C419.06,252.31,419.82,253.11,419.82,254.1z"/>
					<g>
						<path class="st10" d="M427.02,269.75c-0.85,0-1.69-0.23-2.43-0.7c-0.34-0.22-0.45-0.68-0.24-1.04
							c0.2-0.36,0.64-0.48,0.99-0.26c1.08,0.69,2.52,0.64,3.67-0.14c1-0.68,1.51-1.74,1.38-2.91c-0.04-0.42,0.24-0.79,0.63-0.84
							c0.39-0.05,0.75,0.25,0.79,0.67c0.18,1.74-0.58,3.37-2.03,4.36C428.93,269.46,427.97,269.75,427.02,269.75z"/>
					</g>
					<path class="st9" d="M419.95,261.69c-0.54,0.42-1.25,0.83-1.29,1.53c-0.04,0.62,0.5,1.13,1.07,1.3
						c1.17,0.36,2.47-0.37,3.13-1.46c0.67-1.08,0.83-2.43,0.82-3.72c-0.01-0.68-0.06-1.4-0.41-1.98c-0.23-0.4-0.87-1.02-1.31-0.6
						c-0.36,0.34-0.22,1.18-0.27,1.62C421.57,259.68,420.94,260.92,419.95,261.69z"/>
				</g>
				<path class="st3" d="M449.95,288.37c0.73,0.74,1.43,1.47,2.05,2.17c0.65,0.71,1.26,1.42,1.88,2.14c0.6,0.72,1.22,1.43,1.8,2.17
					c0.58,0.73,1.18,1.46,1.74,2.2c0.56,0.75,1.15,1.48,1.69,2.24c0.55,0.76,1.11,1.51,1.64,2.28c1.07,1.54,2.12,3.09,3.13,4.67
					c0.52,0.78,1,1.59,1.49,2.39c0.48,0.81,0.99,1.6,1.45,2.42l1.39,2.46c0.47,0.81,0.89,1.67,1.33,2.5
					c0.43,0.84,0.89,1.66,1.29,2.52l1.23,2.56c0.82,1.71,1.53,3.48,2.3,5.22l0,0l0.2,0.48c0.85,2.06,0.53,4.36-0.65,6.05
					c-0.95,1.36-1.88,2.74-2.85,4.07c-0.98,1.33-1.94,2.68-2.95,3.98c-0.99,1.32-2.02,2.6-3.04,3.88c-0.51,0.65-1.04,1.27-1.56,1.9
					c-0.53,0.63-1.04,1.26-1.58,1.88c-2.12,2.49-4.32,4.9-6.57,7.26c-1.12,1.18-2.27,2.33-3.44,3.47l-1.77,1.7
					c-0.61,0.57-1.18,1.1-1.87,1.71c-1.72,1.53-4.28,1.29-5.72-0.52c-1.3-1.64-1.25-4.01,0.03-5.58l0.15-0.18l1.39-1.7l1.41-1.8
					c0.93-1.22,1.85-2.45,2.75-3.71c1.79-2.51,3.53-5.06,5.18-7.67c0.42-0.64,0.82-1.31,1.23-1.97c0.4-0.66,0.82-1.31,1.2-1.98
					c0.79-1.33,1.57-2.66,2.32-4.01c0.77-1.33,1.48-2.7,2.21-4.06c0.72-1.36,1.4-2.74,2.09-4.11l-0.45,6.53l0,0
					c-0.68-1.53-1.29-3.08-2.02-4.59l-1.08-2.26c-0.35-0.76-0.77-1.49-1.14-2.23c-0.4-0.74-0.75-1.49-1.18-2.21l-1.23-2.18
					c-0.4-0.73-0.86-1.43-1.29-2.15c-0.43-0.71-0.86-1.43-1.33-2.13c-0.89-1.41-1.83-2.79-2.78-4.16c-0.47-0.68-0.97-1.35-1.46-2.02
					c-0.48-0.68-1-1.32-1.5-1.99c-0.5-0.67-1.02-1.3-1.54-1.94c-0.51-0.65-1.05-1.26-1.57-1.9c-0.53-0.61-1.07-1.24-1.6-1.82
					c-0.55-0.61-1.06-1.15-1.56-1.66l-0.07-0.07c-2.67-2.7-2.77-7.18-0.21-10.01C443.05,285.78,447.28,285.67,449.95,288.37z"/>
				<path class="st8" d="M442.7,356.66c-5.23-0.05-7.95,1.33-12.01,4.82c-1.07,0.92-2.15,2.31-1.68,3.68
					c0.39,1.15,1.71,1.62,2.86,1.6c1.15-0.03,2.29-0.4,3.44-0.3c1.7,0.15,3.6,0.85,5.26,0.43c1.66-0.42,3.19-1.29,4.63-2.28
					C446.32,363.83,444.04,356.67,442.7,356.66z"/>
				<g>
					<path class="st3" d="M373.14,252.78v218.1c0,4.47,3.43,8.09,7.65,8.09h8.61c4.23,0,7.65-3.62,7.65-8.09v-218.1H373.14z"/>
					<path class="st8" d="M373.14,462.72v8.16c0,4.47,3.43,8.09,7.65,8.09h8.61c4.23,0,7.65-3.62,7.65-8.09v-8.16H373.14z"/>
					<polygon class="st8" points="385.09,205.87 373.14,252.78 385.09,252.78 397.05,252.78 					"/>
					<polygon class="st7" points="385.09,205.87 381.23,221.04 388.96,221.04 					"/>
					<rect x="373.14" y="455.02" class="st6" width="23.91" height="7.69"/>
					<rect x="378.94" y="252.78" class="st7" width="6.16" height="202.25"/>
				</g>
				<path class="st8" d="M369.19,349.35c-1.06,1.35-1.83,3.02-1.85,4.78c-0.03,3.17,2.44,5.85,5.22,7.04
					c1.51,0.65,3.36,0.92,4.69-0.08c1.23-0.92,1.66-2.66,1.68-4.26c0.05-2.93-1.02-5.83-2.82-8.04c-0.63-0.77-2.17-2.69-3.2-2.71
					C371.78,346.06,369.85,348.51,369.19,349.35z"/>
				<path class="st3" d="M442.99,466.57v12.39h20.58v-6.2c0,0-7.17-1.83-8.59-6.2H442.99z"/>
				<path class="st3" d="M414.3,466.57v12.39h-32.29v-4.27c0,0,16.8,0.68,20.3-8.12H414.3z"/>
			</g>
			<g>
				<rect x="61.26" y="441.81" class="st16" width="59.88" height="18.58"/>
				<path class="st3" d="M144.24,399.33l-1.42-3.28c-0.46-1.12-1.01-2.11-1.54-3.12c-0.54-1-1.04-2.06-1.63-2.97l-1.72-2.82
					c-0.59-0.91-1.21-1.76-1.81-2.64c-0.6-0.89-1.23-1.72-1.87-2.53c-0.64-0.81-1.26-1.67-1.92-2.42l-1.96-2.31
					c-1.34-1.47-2.67-2.95-4.06-4.3c-0.69-0.7-1.38-1.38-2.08-2.03c-0.7-0.65-1.4-1.33-2.12-1.95c-1.42-1.27-2.87-2.49-4.34-3.66
					c-0.73-0.59-1.49-1.16-2.24-1.73l-1.16-0.85l-1.23-0.86c-3.73-2.6-8.36-0.75-10.35,4.12c-1.99,4.87-0.58,10.91,3.15,13.51
					l0.22,0.15l0.87,0.61l0.92,0.67c0.62,0.47,1.24,0.94,1.86,1.44c1.24,0.98,2.46,2.02,3.67,3.09c0.61,0.52,1.19,1.09,1.78,1.64
					c0.6,0.54,1.17,1.12,1.74,1.69c1.16,1.13,2.25,2.34,3.35,3.54l1.58,1.86c0.54,0.61,1,1.28,1.51,1.91c0.5,0.64,1,1.28,1.44,1.95
					c0.45,0.67,0.93,1.32,1.37,1.99l1.25,2.05c0.28,0.43,0.52,0.87,0.74,1.32c-0.32,0.51-0.65,1.01-1,1.52
					c-0.53,0.76-1.01,1.55-1.6,2.28l-1.69,2.25l-1.79,2.2c-0.59,0.74-1.22,1.45-1.84,2.17c-0.63,0.71-1.24,1.44-1.89,2.13
					c-1.28,1.41-2.59,2.79-3.93,4.14c-0.66,0.69-1.35,1.34-2.02,2.01c-0.67,0.67-1.36,1.32-2.05,1.98
					c-1.37,1.31-2.78,2.59-4.19,3.84l-2.13,1.85l-2.1,1.76l-0.18,0.15c-1.94,1.62-2.72,4.9-1.73,7.72c1.08,3.08,3.87,4.43,6.23,3.02
					l2.53-1.51l2.45-1.54c1.63-1.04,3.24-2.11,4.85-3.23c0.8-0.55,1.61-1.11,2.4-1.69c0.79-0.58,1.6-1.14,2.39-1.75
					c1.59-1.18,3.16-2.41,4.72-3.69c0.79-0.62,1.56-1.3,2.34-1.96c0.78-0.67,1.56-1.32,2.32-2.04l2.3-2.13l2.27-2.27
					c0.76-0.73,1.5-1.6,2.24-2.42c0.75-0.82,1.49-1.65,2.21-2.58c0.72-0.93,1.47-1.77,2.17-2.8l2.11-3.08l0,0l0.04-0.06
					C145.38,406.78,145.71,402.71,144.24,399.33z"/>
				<path class="st7" d="M107.02,380.24l0.92,0.67c0.62,0.47,1.24,0.94,1.86,1.44c1.24,0.98,2.46,2.02,3.67,3.09
					c0.61,0.52,1.19,1.09,1.78,1.64c0.6,0.54,1.17,1.12,1.74,1.69c1.16,1.13,2.25,2.34,3.35,3.54l1.58,1.86
					c0.45,0.5,0.84,1.05,1.25,1.58c-1.99-12.04-10.08-26.91-10.08-26.91c-3.67-0.38-5.52,5.55-6.45,11.14L107.02,380.24z"/>
				<path class="st3" d="M38.05,399.33l1.42-3.28c0.46-1.12,1.01-2.11,1.54-3.12c0.54-1,1.04-2.06,1.63-2.97l1.72-2.82
					c0.59-0.91,1.21-1.76,1.81-2.64c0.6-0.89,1.23-1.72,1.87-2.53c0.64-0.81,1.26-1.67,1.92-2.42l1.97-2.31
					c1.34-1.47,2.67-2.95,4.06-4.3c0.69-0.7,1.38-1.38,2.08-2.03c0.7-0.65,1.4-1.33,2.12-1.95c1.42-1.27,2.87-2.49,4.34-3.66
					c0.73-0.59,1.49-1.16,2.24-1.73l1.16-0.85l1.23-0.86c3.73-2.6,8.36-0.75,10.35,4.12c1.99,4.87,0.58,10.91-3.15,13.51l-0.22,0.15
					l-0.87,0.61l-0.92,0.67c-0.62,0.47-1.24,0.94-1.86,1.44c-1.24,0.98-2.46,2.02-3.67,3.09c-0.61,0.52-1.19,1.09-1.78,1.64
					c-0.6,0.54-1.17,1.12-1.74,1.69c-1.16,1.13-2.25,2.34-3.35,3.54l-1.58,1.86c-0.54,0.61-1,1.28-1.51,1.91
					c-0.5,0.64-1,1.28-1.44,1.95c-0.45,0.67-0.93,1.32-1.37,1.99l-1.25,2.05c-0.28,0.43-0.52,0.87-0.74,1.32
					c0.32,0.51,0.65,1.01,1,1.52c0.53,0.76,1.01,1.55,1.6,2.28l1.69,2.25l1.79,2.2c0.59,0.74,1.22,1.45,1.84,2.17
					c0.63,0.71,1.24,1.44,1.89,2.13c1.28,1.41,2.59,2.79,3.93,4.14c0.66,0.69,1.35,1.34,2.02,2.01c0.67,0.67,1.36,1.32,2.05,1.98
					c1.37,1.31,2.78,2.59,4.19,3.84l2.13,1.85l2.1,1.76l0.18,0.15c1.94,1.62,2.72,4.9,1.73,7.72c-1.08,3.08-3.87,4.43-6.23,3.02
					l-2.53-1.51L71,439.36c-1.63-1.04-3.24-2.11-4.85-3.23c-0.8-0.55-1.61-1.11-2.4-1.69c-0.79-0.58-1.6-1.14-2.39-1.75
					c-1.59-1.18-3.16-2.41-4.72-3.69c-0.79-0.62-1.56-1.3-2.34-1.96c-0.78-0.67-1.56-1.32-2.32-2.04l-2.3-2.13l-2.27-2.27
					c-0.76-0.73-1.5-1.6-2.24-2.42c-0.75-0.82-1.49-1.65-2.21-2.58c-0.72-0.93-1.47-1.77-2.17-2.8l-2.11-3.08l0,0l-0.04-0.06
					C36.91,406.78,36.58,402.71,38.05,399.33z"/>
				<path class="st7" d="M75.27,380.24l-0.92,0.67c-0.62,0.47-1.24,0.94-1.86,1.44c-1.24,0.98-2.46,2.02-3.67,3.09
					c-0.61,0.52-1.19,1.09-1.78,1.64c-0.6,0.54-1.17,1.12-1.74,1.69c-1.16,1.13-2.25,2.34-3.35,3.54l-1.58,1.86
					c-0.45,0.5-0.84,1.05-1.25,1.58c1.99-12.04,10.08-26.91,10.08-26.91c3.67-0.38,5.52,5.55,6.45,11.14L75.27,380.24z"/>
				<path class="st3" d="M108.71,360.61H72.98c-2.78,0-5.03,2.38-5.03,5.32v66.02h45.78v-66.02
					C113.74,362.99,111.48,360.61,108.71,360.61z"/>
				<path class="st8" d="M84.65,350.34v11.71c0,3.75,2.87,6.78,6.41,6.78c3.54,0,6.41-3.04,6.41-6.78v-11.71H84.65z"/>
				<path class="st9" d="M84.65,354.82c0.96,0.88,1.98,1.68,3.06,2.38c1.88,1.22,3.92,2.16,6.06,2.77c1.2,0.34,2.48,0.55,3.71,0.45
					v-10.08H84.65V354.82z"/>
				<g>
					<path class="st8" d="M107.73,316.32v25.83c0,7.06-5.41,12.78-12.08,12.78l0,0c-9.7,0-17.56-8.31-17.56-18.57v-20.04H107.73z"/>
					<path class="st10" d="M89.74,331.36c0,0.99,0.76,1.79,1.69,1.79s1.69-0.8,1.69-1.79c0-0.99-0.76-1.79-1.69-1.79
						S89.74,330.37,89.74,331.36z"/>
					<path class="st10" d="M101.34,331.36c0,0.99,0.76,1.79,1.69,1.79c0.93,0,1.69-0.8,1.69-1.79c0-0.99-0.76-1.79-1.69-1.79
						C102.1,329.57,101.34,330.37,101.34,331.36z"/>
					<g>
						<path class="st10" d="M94.14,347.01c0.85,0,1.69-0.23,2.43-0.7c0.34-0.22,0.45-0.68,0.24-1.04c-0.2-0.36-0.64-0.48-0.99-0.26
							c-1.08,0.69-2.52,0.64-3.67-0.14c-1-0.68-1.51-1.74-1.38-2.91c0.04-0.42-0.24-0.79-0.63-0.84c-0.39-0.05-0.75,0.25-0.79,0.67
							c-0.18,1.74,0.58,3.37,2.03,4.36C92.22,346.72,93.19,347.01,94.14,347.01z"/>
					</g>
					<path class="st9" d="M101.21,338.95c0.54,0.42,1.25,0.83,1.29,1.53c0.04,0.62-0.5,1.13-1.07,1.3
						c-1.17,0.36-2.47-0.37-3.13-1.46c-0.67-1.08-0.83-2.43-0.82-3.72c0.01-0.68,0.06-1.4,0.41-1.98c0.23-0.4,0.87-1.02,1.31-0.6
						c0.36,0.34,0.22,1.18,0.27,1.62C99.59,336.94,100.22,338.18,101.21,338.95z"/>
					<path class="st6" d="M79.47,335.94c3.41-1.88,5.72-5.82,5.8-9.89c0.05,0,0.14-0.43,0.19-0.43h25.42
						c0.34-3.34,0.53-6.75,0.13-10.08c-0.4-3.33-1.63-6.67-3.97-8.93c-2.68-2.59-6.48-3.47-10.11-3.52
						c-3.43-0.05-6.91,0.59-9.96,2.26c-3.04,1.67-5.61,4.44-6.76,7.86c-1.3-2.21-4.68-2.49-6.58-0.83c-1.9,1.65-2.62,4.41-2.71,7.02
						C70.69,325.75,74.51,332.37,79.47,335.94z"/>
					<path class="st8" d="M74.51,336.73c0,3.67,1.83,6.64,4.1,6.64c2.26,0,4.1-2.97,4.1-6.64s-1.83-6.64-4.1-6.64
						C76.34,330.09,74.51,333.06,74.51,336.73z"/>
				</g>
				<g>
					<path class="st2" d="M125.62,392.92c0-4.97-3.81-9-8.51-9H66.38c-4.7,0-8.51,4.03-8.51,9l0.37,44.32h67.75L125.62,392.92z"/>
					<path class="st4" d="M98.33,409.42c0,3.84-2.95,6.96-6.58,6.96c-3.63,0-6.58-3.12-6.58-6.96s2.95-6.96,6.58-6.96
						C95.38,402.46,98.33,405.57,98.33,409.42z"/>
				</g>
				<rect x="56.34" y="437.24" class="st2" width="71.88" height="8.96"/>
				<rect x="58.18" y="432.76" class="st17" width="67.81" height="4.48"/>
				<path class="st6" d="M133.48,446.88c2.32,4.57,0.88,10.09-3.02,12.84c-0.68,0.48-1.45,0.82-2.23,1.09l-52.39,18.16l-5.13-11.89
					l50.44-24.33C125.66,440.57,131.14,442.27,133.48,446.88z"/>
				<polygon class="st16" points="98.23,453.8 70.72,467.07 75.85,478.96 121.14,463.26 				"/>
				<path class="st6" d="M47.78,446.88c-2.32,4.57-0.88,10.09,3.02,12.84c0.68,0.48,1.45,0.82,2.23,1.09l52.39,18.16l5.13-11.89
					l-50.44-24.33C55.6,440.57,50.12,442.27,47.78,446.88z"/>
				<path class="st3" d="M110.55,467.07h24.05c0,0,0.32,11.89-12.18,11.89c-12.5,0-17,0-17,0L110.55,467.07z"/>
				<path class="st3" d="M70.72,467.07H46.67c0,0-0.32,11.89,12.18,11.89c12.5,0,17,0,17,0L70.72,467.07z"/>
			</g>
			<path class="st3" d="M109.04,162.69c-1.67-1.31-4.04-0.94-5.28,0.82c0,0-0.78,1.11-2.19,3c-1.42,1.89-3.48,4.57-6.08,7.63
				c-2.6,3.04-5.74,6.49-9.3,9.65c-1.77,1.57-3.67,3.06-5.57,4.25c-0.95,0.6-1.91,1.09-2.81,1.48l-0.67,0.26l-0.64,0.2
				c-0.01,0-0.01,0-0.02,0c-0.47-0.55-1.02-1.29-1.55-2.03c-1.36-1.94-2.68-4.11-3.88-6.24c-2.42-4.28-4.45-8.5-5.95-12.07
				c-1.49-3.52-2.44-6.53-2.69-8.02c0-0.02,0.01-0.03,0.02-0.05c1.16-4.3-1.19-8.78-5.26-10.01c-4.07-1.23-8.31,1.26-9.47,5.56
				c0,0-0.02,0.08-0.07,0.25c-0.04,0.17-0.09,0.35-0.15,0.56c-0.07,0.28-0.13,0.58-0.18,0.91c-0.07,0.4-0.06,0.49-0.09,0.74
				c-0.01,0.22-0.03,0.45-0.05,0.69c-0.03,0.87,0.03,1.79,0.16,2.64c0.12,0.85,0.31,1.69,0.53,2.53c0.9,3.32,2.46,6.87,4.53,10.9
				c2.08,4.01,4.66,8.41,7.75,12.98c1.56,2.29,3.22,4.61,5.18,6.97c1.01,1.19,2.03,2.37,3.49,3.69c0.38,0.33,0.79,0.68,1.31,1.06
				c0.51,0.36,1.15,0.8,2.22,1.24c0.29,0.11,0.54,0.21,0.97,0.31c0.2,0.05,0.4,0.09,0.6,0.12c0.18,0.03,0.51,0.06,0.76,0.07
				l0.41,0.01l0.2,0c-0.21,0.02,0.52-0.04,0.44-0.03l0.12-0.02l0.25-0.04c0.36-0.06,0.55-0.08,1.23-0.24l0.85-0.2l0.42-0.11
				l0.33-0.11c0.44-0.16,0.9-0.31,1.32-0.48L81.5,201l1.15-0.6c1.49-0.83,2.84-1.74,4.07-2.7c2.45-1.92,4.55-3.96,6.43-5.99
				c3.76-4.08,6.76-8.13,9.22-11.65c2.45-3.53,4.34-6.55,5.63-8.68c1.29-2.13,2-3.38,2-3.38l0.03-0.06
				C111.01,166.19,110.61,163.92,109.04,162.69z"/>
			<g>
				<polygon class="st14" points="121.09,145.79 117.75,145.23 118.4,140.84 121.74,141.4 				"/>
				<g>
					<path class="st13" d="M116.31,144.21l-4.32,28.99c-0.28,1.88,0.94,3.65,2.72,3.95h0c1.78,0.3,3.45-0.99,3.74-2.88l4.32-28.99
						L116.31,144.21z"/>
				</g>
				<path class="st13" d="M119.9,142.25c-9.92-1.65-16.72-11.53-15.16-22.02c1.56-10.49,10.9-17.68,20.82-16.03
					c9.92,1.65,16.72,11.53,15.16,22.02C139.17,136.72,129.82,143.91,119.9,142.25z"/>
				<path class="st4" d="M125.12,107.25c-8.34-1.39-16.18,4.65-17.5,13.47c-1.31,8.81,4.4,17.11,12.74,18.5
					c8.34,1.39,16.19-4.65,17.5-13.47C139.17,116.93,133.45,108.63,125.12,107.25z"/>
				<g>
					<defs>
						<path id="SVGID_1_" d="M125.12,107.25c-8.34-1.39-16.18,4.65-17.5,13.47c-1.31,8.81,4.4,17.11,12.74,18.5
							c8.34,1.39,16.19-4.65,17.5-13.47C139.17,116.93,133.45,108.63,125.12,107.25z"/>
					</defs>
					<clipPath id="SVGID_2_">
						<use xlink:href="#SVGID_1_"  style="overflow:visible;"/>
					</clipPath>
					<g class="st18">
						<g>
							<path class="st14" d="M217.34,128.5H116.69c-2.37,0-4.49-1.83-4.72-4.33c-0.26-2.87,1.86-5.28,4.52-5.28h100.62
								c2.39,0,4.54,1.85,4.75,4.37C222.1,126.11,219.99,128.5,217.34,128.5z"/>
						</g>
						<g>
							<path class="st2" d="M258.99,147.41h-86.08c-2.07,0-3.94-1.64-4.03-3.82c-0.1-2.29,1.63-4.18,3.78-4.18h86.08
								c2.07,0,3.94,1.64,4.03,3.82C262.87,145.52,261.14,147.41,258.99,147.41z"/>
						</g>
						<g>
							<path class="st2" d="M140.48,147.41h-23.77c-2.05,0-3.89-1.62-3.99-3.79c-0.11-2.31,1.62-4.22,3.78-4.22h23.74
								c2.07,0,3.94,1.64,4.03,3.82C144.36,145.52,142.63,147.41,140.48,147.41z"/>
						</g>
						<g>
							<path class="st2" d="M227.56,165.4H116.71c-2.05,0-3.89-1.62-3.99-3.79c-0.11-2.31,1.62-4.22,3.78-4.22h110.82
								c2.07,0,3.94,1.64,4.03,3.82C231.44,163.51,229.71,165.4,227.56,165.4z"/>
						</g>
						<g>
							<path class="st2" d="M196.89,182.46h-80.19c-2.05,0-3.89-1.62-3.99-3.79c-0.11-2.31,1.62-4.22,3.78-4.22h80.15
								c2.07,0,3.94,1.64,4.03,3.82C200.77,180.57,199.04,182.46,196.89,182.46z"/>
						</g>
					</g>
				</g>
			</g>
			<path class="st8" d="M103.76,163.52l5.64,5.5l7.59-0.91l5.78-6.45c1.79-2,0.94-5.3-1.56-6.06l-5.96-1.82
				c-1.67-0.51-3.46,0.05-4.61,1.43L103.76,163.52z"/>
		</g>
	</g>
</g>
<g id="DESIGNED_BY_FREEPIK">
</g>
</svg>
